<svg width="16" height="16" viewBox="0 0 16 16" fill="none" xmlns="http://www.w3.org/2000/svg">
<g clip-path="url(#clip0_1_14003)">
<path d="M16 1.89733H10.576C10.211 0.798766 9.1925 0.0400391 8 0.0400391C6.80801 0.0400391 5.78953 0.798766 5.42402 1.89733H0V10.8942H4.7577L3.8193 14.8907C3.64271 15.2649 3.8039 15.7125 4.17865 15.8886C4.28183 15.9369 4.39014 15.96 4.49743 15.96C4.77926 15.96 5.04825 15.8003 5.17608 15.5293L6.41478 10.8942H9.58522L10.8239 15.5293C10.9517 15.8003 11.2202 15.96 11.5026 15.96C11.6099 15.96 11.7182 15.9369 11.8208 15.8886C12.1956 15.712 12.3573 15.2649 12.1807 14.8907L11.2423 10.8942H16V1.89733ZM8 1.04004C8.63142 1.04004 9.18635 1.37833 9.48614 1.89733H6.51489C6.81366 1.37885 7.36858 1.04004 8 1.04004ZM14.5 9.39374H8H1.5V3.39733H14.5V9.39374Z" fill="#D341A5"/>
</g>
<defs>
<clipPath id="clip0_1_14003">
<rect width="16" height="16" fill="white"/>
</clipPath>
</defs>
</svg>
