<svg width="16" height="16" viewBox="0 0 16 16" fill="none" xmlns="http://www.w3.org/2000/svg">
<path d="M15.1021 3.15147H14.6532V3.05784C14.6532 2.76079 14.4308 2.505 14.1338 2.505H12.5773C12.2803 2.505 12.0135 2.76079 12.0135 3.05784V3.15147H11.2593V3.05784C11.2593 2.76079 11.0529 2.505 10.7559 2.505H9.19946C8.90246 2.505 8.61953 2.76079 8.61953 3.05784V3.15147H0.933764C0.42796 3.15147 0 3.56149 0 4.06729V11.3939C0 11.8997 0.42796 12.3097 0.933764 12.3097H1.40067V12.9421C1.40067 13.2391 1.68431 13.4949 1.98131 13.4949H3.86564C4.16269 13.4949 4.36358 13.2391 4.36358 12.9421V12.3097H11.6902V12.9421C11.6902 13.2391 11.927 13.4949 12.224 13.4949H14.1084C14.4055 13.4949 14.6531 13.2391 14.6531 12.9421V12.3097H15.1021C15.6079 12.3097 15.9999 11.8997 15.9999 11.3939V4.06729C16 3.56149 15.6079 3.15147 15.1021 3.15147ZM4.0814 10.5354C2.54303 10.5354 1.296 9.28841 1.296 7.75004C1.296 6.21172 2.54303 4.96469 4.0814 4.96469C5.61961 4.96469 6.86664 6.21167 6.86664 7.75004C6.86669 9.28841 5.61961 10.5354 4.0814 10.5354ZM10.0202 9.08171C10.0202 9.52798 9.6584 9.88979 9.21212 9.88979C8.76585 9.88979 8.40404 9.52798 8.40404 9.08171V6.41849C8.40404 5.97221 8.76585 5.61041 9.21212 5.61041C9.6584 5.61041 10.0202 5.97221 10.0202 6.41849V9.08171ZM10.7744 9.08171V6.41849C10.7744 5.97221 11.1362 5.61041 11.5825 5.61041C12.0288 5.61041 12.3906 5.97221 12.3906 6.41849V9.08171C12.3906 9.52798 12.0288 9.88979 11.5825 9.88979C11.1362 9.88979 10.7744 9.52798 10.7744 9.08171ZM14.7609 9.08171C14.7609 9.52798 14.3991 9.88979 13.9529 9.88979C13.5066 9.88979 13.1448 9.52798 13.1448 9.08171V6.41849C13.1448 5.97221 13.5066 5.61041 13.9529 5.61041C14.3991 5.61041 14.7609 5.97221 14.7609 6.41849V9.08171Z" fill="#03ADF3"/>
</svg>
